# xmcd
#
# Track frame offsets:
#	150
#	20620
#	39288
#	60718
#	80305
#	100360
#	120593
#	138928
#	160719
#	182853
#	201278
#	222491
#	243281
#
# Disc length: 3492 seconds
#
# Revision: 0
# Processed by: cddbd v1.5.2PL0 Copyright (c) Steve Scherf et al.
# Submitted via: EasyCDDAExtractor 2011.3.0.0
#
DISCID=af0da20d
DTITLE=DIOMDES DIAZ - LA VIDA DEL ARTISTA
DYEAR=2014
DGENRE=Blues
TTITLE0=NO LLORES MAMA
TTITLE1=QUE VAINA TAN DIFICIL
TTITLE2=AQUI ESTA LO TUYO
TTITLE3=HASTA EL FIN DEL FIN
TTITLE4=EL HERMANO ELIAS
TTITLE5=NI AMIGOS, NI NOVIOS
TTITLE6=MADURÉ
TTITLE7=AY, LA VIDA
TTITLE8=HUMILDE VIAJERO
TTITLE9=LA VIDA DEL ARTISTA
TTITLE10=UN RAMITO DE OLIVO
TTITLE11=POR DOS MIL SIGLOS
TTITLE12=EL MISMO DE SIEMPRE
EXTD=
EXTT0=
EXTT1=
EXTT2=
EXTT3=
EXTT4=
EXTT5=
EXTT6=
EXTT7=
EXTT8=
EXTT9=
EXTT10=
EXTT11=
EXTT12=
PLAYORDER=
